<svg width="48" height="48" viewBox="0 0 48 48" fill="none" xmlns="http://www.w3.org/2000/svg">
<path d="M46.9734 9.66845C46.0706 5.5922 42.1191 1.85814 38.0316 1.06501C35.5416 0.567198 28.5938 -0.0478016 24 1.08499e-05C19.4062 -0.0506142 12.4584 0.562511 9.96844 1.0622C5.88094 1.85814 1.92937 5.5922 1.03125 9.66845C0.511875 12.1434 0.0075 15.5109 0 20.1075C0.0075 24.7013 0.511875 28.0697 1.03125 30.5456C1.93406 34.6219 5.88562 38.3559 9.97312 39.1491C11.3175 39.4172 13.9613 39.7209 16.8328 39.9347C17.1578 40.4453 17.5106 40.9891 17.8913 41.5659C19.4156 43.8741 20.5809 45.4819 21.4641 46.6022C22.9341 48.466 25.0744 48.466 26.5444 46.6022C27.4275 45.4819 28.5928 43.8741 30.1172 41.5659C30.4978 40.9884 30.8506 40.4447 31.1756 39.9347C34.0472 39.7209 36.6919 39.4172 38.0363 39.1491C42.1237 38.3559 46.0753 34.6219 46.9781 30.5456C47.4919 28.0697 47.9972 24.7031 48.0047 20.1075C47.9925 15.51 47.4872 12.1444 46.9734 9.66845Z" fill="#FF83D5"/>
<path d="M24 1.08499e-05C19.4063 -0.0506142 12.4584 0.562511 9.96844 1.0622C5.88094 1.85814 1.92938 5.5922 1.03125 9.66845C0.511875 12.1434 0.0075 15.5109 0 20.1066C0.0075 24.7003 0.511875 28.0697 1.03125 30.5456C1.56281 32.9484 3.15563 35.2331 5.21063 36.8653C7.2002 37.3393 9.23851 37.5781 11.2838 37.5769C25.6866 37.5769 37.3622 25.9013 37.3622 11.4994C37.3654 7.74783 36.5563 4.04005 34.9903 0.630948C31.7878 0.271886 27.2906 -0.0337392 24 1.08499e-05Z" fill="#DF43A6"/>
<path d="M26.6514 33.7342C26.5889 34.0261 26.4434 34.2937 26.2323 34.5048C26.0212 34.7159 25.7536 34.8614 25.4617 34.9239C24.4931 35.0739 23.5072 35.0739 22.5386 34.9239C22.2465 34.8616 21.9788 34.7162 21.7677 34.505C21.5566 34.2939 21.4111 34.0262 21.3489 33.7342C21.2001 32.7658 21.2001 31.7804 21.3489 30.812C21.4115 30.5205 21.5571 30.2533 21.7682 30.0427C21.9793 29.8321 22.2469 29.687 22.5386 29.6251C23.5072 29.4751 24.4931 29.4751 25.4617 29.6251C25.7537 29.6873 26.0215 29.8327 26.2327 30.0438C26.4438 30.255 26.5892 30.5227 26.6514 30.8148C26.8001 31.7832 26.8001 32.7686 26.6514 33.737V33.7342ZM21.3414 8.91949C21.3414 8.21435 21.6215 7.53808 22.1201 7.03947C22.6187 6.54086 23.295 6.26074 24.0001 6.26074C24.7053 6.26074 25.3815 6.54086 25.8801 7.03947C26.3788 7.53808 26.6589 8.21435 26.6589 8.91949V23.8323C26.6589 24.5374 26.3788 25.2137 25.8801 25.7123C25.3815 26.2109 24.7053 26.4911 24.0001 26.4911C23.295 26.4911 22.6187 26.2109 22.1201 25.7123C21.6215 25.2137 21.3414 24.5374 21.3414 23.8323V8.91949Z" fill="white"/>
</svg>
