<svg width="101" height="109" viewBox="0 0 101 109" fill="none" xmlns="http://www.w3.org/2000/svg">
<path d="M16.4045 75.8097L32.1385 66.7252C31.2371 64.7459 30.6652 62.6325 30.4454 60.4687H12.3047C12.5752 65.8141 13.9723 71.042 16.4045 75.8097ZM12.3027 56.4375H30.4434C30.6651 54.2243 31.2597 52.124 32.1385 50.181L16.4045 41.0966C13.9723 45.8642 12.5732 51.0921 12.3027 56.4375ZM84.5931 41.0966L68.8592 50.181C69.738 52.124 70.3306 54.2243 70.5523 56.4375H88.6929C88.4224 51.0921 87.0253 45.8642 84.5931 41.0966ZM88.6949 60.4687H70.5543C70.3339 62.6327 69.7613 64.746 68.8592 66.7252L84.5931 75.8097C87.0253 71.042 88.4245 65.8141 88.6949 60.4687Z" fill="#FF83D5" fill-opacity="0.54"/>
<path d="M50.5 62.4844C52.7264 62.4844 54.5312 60.6796 54.5312 58.4532C54.5312 56.2268 52.7264 54.4219 50.5 54.4219C48.2736 54.4219 46.4688 56.2268 46.4688 58.4532C46.4688 60.6796 48.2736 62.4844 50.5 62.4844Z" fill="#FF83D5"/>
<path d="M66.6251 58.4532C66.6251 49.5643 59.389 42.3282 50.5001 42.3282C41.6112 42.3282 34.3751 49.5643 34.3751 58.4532C34.3751 67.3421 41.6112 74.5782 50.5001 74.5782C59.389 74.5782 66.6251 67.3421 66.6251 58.4532ZM42.4376 58.4532C42.4376 53.9987 46.0456 50.3907 50.5001 50.3907C54.9546 50.3907 58.5626 53.9987 58.5626 58.4532C58.5626 62.9077 54.9546 66.5157 50.5001 66.5157C46.0456 66.5157 42.4376 62.9077 42.4376 58.4532ZM58.7722 76.8135C56.7929 77.7149 54.6795 78.2868 52.5157 78.5066V96.6473C57.8611 96.3768 63.089 94.9797 67.8566 92.5475L58.7722 76.8135ZM71.3497 26.3725L62.2593 42.1165C64.0209 43.3864 65.5649 44.9324 66.8347 46.692L82.5808 37.6015C79.6565 33.1206 75.8318 29.2972 71.3497 26.3745V26.3725ZM48.4845 78.5087C46.3205 78.2883 44.2072 77.7157 42.228 76.8135L33.1436 92.5475C37.9112 94.9797 43.1391 96.3768 48.4845 96.6473V78.5087ZM82.5808 79.3028L66.8367 70.2123C65.5669 71.974 64.0209 73.518 62.2613 74.7878L71.3497 90.5339C75.8322 87.6101 79.657 83.7853 82.5808 79.3028Z" fill="#A5107D"/>
<path d="M58.8044 8.76807L55.3173 16.4073C61.1425 17.0724 66.6048 18.947 71.4625 21.7285C71.523 21.7487 71.6036 21.7487 71.6641 21.789C71.7447 21.8495 71.8052 21.9301 71.8656 21.9704C78.1141 25.6388 83.3144 30.8593 86.9828 37.0876C87.0231 37.1481 87.1037 37.2085 87.1642 37.2892C87.2045 37.3496 87.2045 37.4303 87.2247 37.4907C90.7722 43.6787 92.8281 50.8342 92.8281 58.4532C92.8281 66.0723 90.7722 73.2278 87.2247 79.4157C87.2045 79.4762 87.2045 79.5568 87.1642 79.6173C87.0836 79.7382 86.9828 79.8592 86.9022 79.9599C83.2267 86.1351 78.0555 91.2855 71.8656 94.936C71.8052 94.9764 71.7447 95.057 71.6641 95.1175C71.5633 95.1578 71.4827 95.1981 71.3819 95.2384C65.0218 98.8707 57.8242 100.781 50.5 100.781C43.1758 100.781 35.9782 98.8707 29.6181 95.2384C29.5173 95.1981 29.4367 95.1578 29.3359 95.1175C29.2553 95.057 29.1948 94.9764 29.1344 94.936C22.9445 91.2855 17.7733 86.1351 14.0978 79.9599C14.0172 79.8592 13.9164 79.7382 13.8358 79.6173C13.7955 79.5568 13.7955 79.4762 13.7753 79.4157C10.2278 73.2278 8.17188 66.0723 8.17188 58.4532C8.17188 50.8342 10.2278 43.6787 13.7753 37.4907C13.7955 37.4303 13.7955 37.3496 13.8358 37.2892C13.8963 37.2085 13.9769 37.1481 14.0172 37.0876C17.6856 30.8593 22.8859 25.6388 29.1344 21.9704C29.1948 21.9301 29.2553 21.8495 29.3359 21.789C29.3964 21.7487 29.477 21.7487 29.5375 21.7285C34.3952 18.947 39.8575 17.0724 45.6827 16.4073L42.1956 8.76807C18.3508 12.7187 0.109375 33.4796 0.109375 58.4532C0.109375 86.2487 22.7045 108.844 50.5 108.844C78.2955 108.844 100.891 86.2487 100.891 58.4532C100.891 33.4796 82.6492 12.7187 58.8044 8.76807ZM64.8714 16.3871C63.7628 16.3871 62.8356 15.4801 62.8356 14.3715C62.8356 13.2428 63.7427 12.3559 64.8512 12.3559H64.8714C65.98 12.3559 66.887 13.2428 66.887 14.3715C66.887 15.4801 65.98 16.3871 64.8714 16.3871ZM77.7916 22.9581C76.683 22.9581 75.7558 22.051 75.7558 20.9424C75.7558 19.8338 76.6628 18.9268 77.7714 18.9268H77.7916C78.9002 18.9268 79.8072 19.8338 79.8072 20.9424C79.8072 22.051 78.9002 22.9581 77.7916 22.9581ZM36.1891 12.3559H36.2092C37.3178 12.3559 38.2248 13.2428 38.2248 14.3715C38.2248 15.4801 37.3178 16.3871 36.2092 16.3871C35.1006 16.3871 34.1936 15.4801 34.1936 14.3715C34.1936 13.2428 35.0805 12.3559 36.1891 12.3559ZM23.2689 18.9268H23.2891C24.3977 18.9268 25.3047 19.8338 25.3047 20.9424C25.3047 22.051 24.3977 22.9581 23.2891 22.9581C22.1805 22.9581 21.2734 22.051 21.2734 20.9424C21.2734 19.8338 22.1603 18.9268 23.2689 18.9268ZM13.0094 29.1863H13.0295C14.1381 29.1863 15.0452 30.0934 15.0452 31.202C15.0452 32.3106 14.1381 33.2176 13.0295 33.2176C11.9209 33.2176 11.0139 32.3106 11.0139 31.202C11.0139 30.0934 11.9008 29.1863 13.0094 29.1863ZM6.43844 42.1065H6.45859C7.56719 42.1065 8.47422 43.0135 8.47422 44.1221C8.47422 45.2307 7.56719 46.1378 6.45859 46.1378C5.32984 46.1378 4.42281 45.2307 4.42281 44.1221C4.42281 43.0135 5.30969 42.1065 6.43844 42.1065ZM2.14516 58.4532C2.14516 57.3446 3.05219 56.4376 4.16078 56.4376H4.18094C5.28953 56.4376 6.19656 57.3446 6.19656 58.4532C6.19656 59.5618 5.28953 60.4689 4.18094 60.4689C3.07234 60.4689 2.14516 59.5618 2.14516 58.4532ZM6.45859 74.8C5.32984 74.8 4.42281 73.8929 4.42281 72.7843C4.42281 71.6757 5.30969 70.7687 6.43844 70.7687H6.45859C7.56719 70.7687 8.47422 71.6757 8.47422 72.7843C8.47422 73.8929 7.56719 74.8 6.45859 74.8ZM13.0295 87.7201C11.9209 87.7201 11.0139 86.8131 11.0139 85.7045C11.0139 84.5959 11.9008 83.6889 13.0094 83.6889H13.0295C14.1381 83.6889 15.0452 84.5959 15.0452 85.7045C15.0452 86.8131 14.1381 87.7201 13.0295 87.7201ZM23.2891 97.9796C22.1805 97.9796 21.2734 97.0726 21.2734 95.964C21.2734 94.8554 22.1603 93.9484 23.2689 93.9484H23.2891C24.3977 93.9484 25.3047 94.8554 25.3047 95.964C25.3047 97.0726 24.3977 97.9796 23.2891 97.9796ZM77.7916 97.9796C76.683 97.9796 75.7558 97.0726 75.7558 95.964C75.7558 94.8554 76.6628 93.9484 77.7714 93.9484H77.7916C78.9002 93.9484 79.8072 94.8554 79.8072 95.964C79.8072 97.0726 78.9002 97.9796 77.7916 97.9796ZM88.0511 33.2176C86.9425 33.2176 86.0153 32.3106 86.0153 31.202C86.0153 30.0934 86.9223 29.1863 88.0309 29.1863H88.0511C89.1597 29.1863 90.0667 30.0934 90.0667 31.202C90.0667 32.3106 89.1597 33.2176 88.0511 33.2176ZM92.6064 44.1221C92.6064 43.0135 93.4933 42.1065 94.6019 42.1065H94.622C95.7508 42.1065 96.6377 43.0135 96.6377 44.1221C96.6377 45.2307 95.7508 46.1378 94.622 46.1378C93.5134 46.1378 92.6064 45.2307 92.6064 44.1221ZM88.0511 87.7201C86.9425 87.7201 86.0153 86.8131 86.0153 85.7045C86.0153 84.5959 86.9223 83.6889 88.0309 83.6889H88.0511C89.1597 83.6889 90.0667 84.5959 90.0667 85.7045C90.0667 86.8131 89.1597 87.7201 88.0511 87.7201ZM94.622 74.8C93.5134 74.8 92.6064 73.8929 92.6064 72.7843C92.6064 71.6757 93.4933 70.7687 94.6019 70.7687H94.622C95.7508 70.7687 96.6377 71.6757 96.6377 72.7843C96.6377 73.8929 95.7508 74.8 94.622 74.8ZM96.8997 60.4689C95.7911 60.4689 94.8639 59.5618 94.8639 58.4532C94.8639 57.3446 95.7709 56.4376 96.8795 56.4376H96.8997C98.0083 56.4376 98.9153 57.3446 98.9153 58.4532C98.9153 59.5618 98.0083 60.4689 96.8997 60.4689Z" fill="#FF83D5"/>
<path d="M29.6517 90.5339L38.7422 74.7898C36.9822 73.5191 35.4374 71.9743 34.1667 70.2144L18.4207 79.3048C21.3449 83.7858 25.1697 87.6112 29.6517 90.5339ZM52.3356 22.9984C52.1765 23.3516 51.9188 23.6515 51.5934 23.8618C51.268 24.0721 50.8888 24.184 50.5013 24.184C50.1139 24.184 49.7347 24.0721 49.4093 23.8618C49.0839 23.6515 48.8262 23.3516 48.6671 22.9984L47.4376 20.2974C42.3179 20.7005 37.5006 22.1316 33.1468 24.369L42.2373 40.0909C44.1723 39.204 46.2685 38.6195 48.4857 38.3977V32.2501C48.4857 31.1415 49.3927 30.2345 50.5013 30.2345C51.6099 30.2345 52.517 31.1415 52.517 32.2501V38.3977C54.7342 38.6195 56.8304 39.204 58.7654 40.0909L67.8559 24.369C63.41 22.076 58.5519 20.6918 53.5651 20.2974L52.3356 22.9984ZM38.7422 42.1166L29.6517 26.3745C25.1697 29.2972 21.3449 33.1206 18.4207 37.6016L34.1647 46.692C35.4345 44.9324 36.9825 43.3864 38.7422 42.1166ZM50.5013 17.2941L57.3524 2.21928C57.4136 2.08599 57.4453 1.94109 57.4454 1.79444C57.4454 1.64779 57.4139 1.50286 57.3529 1.36951C57.2918 1.23617 57.2028 1.11755 57.0917 1.02175C56.9807 0.925953 56.8503 0.855225 56.7095 0.814389C52.6421 -0.272358 48.3606 -0.272358 44.2932 0.814389C44.1524 0.855225 44.022 0.925953 43.911 1.02175C43.7999 1.11755 43.7109 1.23617 43.6498 1.36951C43.5888 1.50286 43.5572 1.64779 43.5573 1.79444C43.5574 1.94109 43.5891 2.08599 43.6502 2.21928L50.5013 17.2941Z" fill="#FFD5F1"/>
</svg>
