<svg width="532" height="532" viewBox="0 0 532 532" fill="none" xmlns="http://www.w3.org/2000/svg">
<path d="M496.394 132.982C473.038 92.6176 439.383 58.961 399.017 35.6055L266 266L496.394 132.982Z" fill="white"/>
<path d="M399.017 35.6056C359.888 12.9655 314.458 0 266 0V266L399.017 35.6056Z" fill="white"/>
<path d="M266 0C217.54 0 172.112 12.9643 132.982 35.6056L266 266V0Z" fill="white"/>
<path d="M132.981 35.6055C92.6166 58.961 58.96 92.6164 35.6045 132.982L265.999 266L132.981 35.6055Z" fill="white"/>
<path d="M531.999 266C531.999 217.54 519.035 172.112 496.394 132.982L266 266H531.999Z" fill="white"/>
<path d="M35.6056 132.982C12.9643 172.112 0 217.541 0 266H266L35.6056 132.982Z" fill="white"/>
<path d="M399.017 496.394C439.382 473.039 473.038 439.384 496.394 399.018L266 266L399.017 496.394Z" fill="white"/>
<path d="M266 266L496.394 399.019C519.035 359.889 531.999 314.46 531.999 266.001H266V266Z" fill="white"/>
<path d="M0 266C0 314.46 12.9643 359.888 35.6056 399.018L266 266H0Z" fill="white"/>
<path d="M266 532C314.458 532 359.888 519.036 399.017 496.394L266 266V532Z" fill="white"/>
<path d="M35.6045 399.019C58.96 439.384 92.6153 473.04 132.981 496.396L265.999 266L35.6045 399.019Z" fill="white"/>
<path d="M132.982 496.394C172.112 519.036 217.541 532 266 532V266L132.982 496.394Z" fill="white"/>
<path d="M486 137.983C463.699 99.4399 431.562 67.3024 393.017 45L266 265L486 137.983Z" fill="#A5107D"/>
<path d="M393 44.9991C355.641 23.3795 312.266 11 266 11V265L393 44.9991Z" fill="#D381B5"/>
<path d="M266 11C219.732 11 176.359 23.3796 139 44.9993L266 265V11Z" fill="#FF83D5"/>
<path d="M138.983 45C100.44 67.3024 68.3022 99.4399 46 137.983L266 265L138.983 45Z" fill="#D381B5"/>
<path d="M520 265C520 218.732 507.62 175.359 486.001 138L266 265H520Z" fill="#D381B5"/>
<path d="M45.9991 138C24.3795 175.359 12 218.732 12 265H266L45.9991 138Z" fill="#BA1B8C"/>
<path d="M393.017 485C431.56 462.699 463.698 430.56 486 392.017L266 265L393.017 485Z" fill="#CC168E"/>
<path d="M266 265L486.001 392C507.62 354.641 520 311.268 520 265H266Z" fill="#FF83D5"/>
<path d="M12 265C12 311.266 24.3795 354.639 45.9991 392L266 265H12Z" fill="#A5107D"/>
<path d="M266 519C312.266 519 355.641 506.62 393 485.001L266 265V519Z" fill="#A5107D"/>
<path d="M46 392.017C68.3008 430.56 100.438 462.698 138.983 485L266 265L46 392.017Z" fill="#B34598"/>
<path d="M139 485.001C176.359 506.62 219.732 519 266 519V265L139 485.001Z" fill="#FF83D5"/>
<path d="M325.97 274.52C331.052 241.999 308.809 211.516 276.288 206.434C243.768 201.352 213.284 223.595 208.202 256.116C203.12 288.637 225.363 319.12 257.884 324.202C290.405 329.284 320.888 307.041 325.97 274.52Z" fill="url(#paint0_linear_233_495)"/>
<path d="M289.41 51.3577C288.93 50.8778 288.262 50.9629 287.775 51.3577C287.117 51.8918 286.46 52.4247 285.802 52.9588C285.173 53.4694 284.36 53.916 284.144 54.7363C283.993 55.3123 284.432 55.9439 285.05 55.9254C285.956 55.8995 286.599 55.1729 287.285 54.6413C287.993 54.0924 288.701 53.5435 289.409 52.9946C289.904 52.6097 289.812 51.7598 289.41 51.3577Z" fill="#FFF245"/>
<path d="M278.105 71.2889C277.392 70.365 276.257 70.439 275.408 71.1063L273.886 72.3028C273.291 72.7703 272.699 73.1922 272.56 73.9915C272.442 74.6712 272.735 75.5815 273.536 75.711C274.489 75.8652 275.081 75.5618 275.861 75.061C276.439 74.6897 277.019 74.3172 277.598 73.9446C278.506 73.3612 278.783 72.1684 278.105 71.2889Z" fill="#FFF245"/>
<path d="M340.618 67.4822C340.363 66.5558 339.355 65.9748 338.425 66.2376C337.913 66.3819 337.402 66.5262 336.891 66.6705C336.121 66.8888 335.549 67.217 335.147 67.946C334.767 68.6355 334.915 69.7654 335.717 70.1219C336.491 70.4661 337.086 70.5561 337.878 70.2514C338.377 70.0602 338.875 69.8678 339.373 69.6766C340.271 69.3287 340.892 68.4764 340.618 67.4822Z" fill="#FFF245"/>
<path d="M360.877 79.3252C360.241 78.6899 359.239 78.8824 358.758 79.5978C358.555 79.8988 358.354 80.1998 358.152 80.5007C357.528 81.4308 358.771 82.6742 359.701 82.05C360.002 81.8477 360.303 81.6467 360.604 81.4444C361.32 80.9645 361.516 79.9641 360.877 79.3252Z" fill="#FFF245"/>
<path d="M355.893 98.1906C355.174 97.2593 353.906 97.2383 353.052 97.9982C352.281 98.6853 351.335 99.6659 351.369 100.786C351.385 101.319 351.739 101.833 352.27 101.97C353.368 102.251 354.502 101.603 355.359 100.987C356.279 100.327 356.638 99.1552 355.893 98.1906Z" fill="#FFF245"/>
<path d="M277.079 147.269C276.847 146.679 276.444 146.226 275.778 146.148C275.274 146.087 274.778 146.266 274.434 146.63C274.065 146.898 273.852 147.223 273.647 147.687C273.581 147.897 273.577 147.904 273.639 147.709C273.613 147.75 273.609 147.756 273.593 147.781C273.619 147.74 273.603 147.752 273.549 147.808C273.526 147.823 273.512 147.833 273.452 147.876C273.116 148.098 272.853 148.389 272.658 148.743C272.25 149.482 272.454 150.518 273.234 150.939C274.339 151.536 275.454 151.126 276.312 150.312C276.605 150.033 276.875 149.674 277.059 149.31C277.227 148.977 277.402 148.571 277.385 148.193C277.369 147.854 277.146 147.438 277.079 147.269Z" fill="#FFF245"/>
<path d="M292.175 159.594C291.473 158.892 290.467 158.999 289.756 159.594C289.36 159.925 288.956 160.248 288.568 160.587C288.127 160.974 287.885 161.449 287.601 161.953C287.054 162.925 287.974 164.35 289.133 163.946C289.788 163.716 290.348 163.525 290.896 163.082C291.328 162.733 291.748 162.369 292.175 162.013C292.884 161.421 292.788 160.207 292.175 159.594Z" fill="#FFF245"/>
<path d="M318.299 155.845C317.743 154.894 316.685 154.782 315.761 155.179C314.669 155.649 313.492 156.372 312.746 157.312C312.113 158.109 311.968 159.201 312.746 159.979C313.501 160.734 314.652 160.66 315.413 159.979C316.197 159.276 316.599 158.868 317.633 158.383C318.541 157.959 318.772 156.653 318.299 155.845Z" fill="#FFF245"/>
<path d="M379.2 86.281C378.528 85.8875 377.85 86.1897 377.42 86.7473C376.957 87.3455 376.355 87.8266 375.711 88.2127C374.248 89.0885 375.597 91.4038 377.049 90.5009C378.091 89.8533 378.935 89.0404 379.666 88.061C380.087 87.4973 379.757 86.6079 379.2 86.281Z" fill="#C3D95E"/>
<path d="M400.937 101.625C400.257 101.532 399.722 101.978 399.56 102.597C398.464 102.814 398.216 104.449 399.426 104.783C400.543 105.09 401.806 104.411 401.999 103.218C402.12 102.464 401.76 101.736 400.937 101.625Z" fill="#C3D95E"/>
<path d="M342.13 151.929C341.466 151.875 340.92 152.194 340.299 152.383C339.802 152.535 339.3 152.632 338.787 152.699C337.847 152.821 336.371 153.556 336.749 154.766C337.183 156.151 338.861 156.072 339.977 155.817C341.167 155.546 342.671 155.118 343.336 154.031C343.928 153.065 343.143 152.013 342.13 151.929Z" fill="#C3D95E"/>
<path d="M339.652 177.854C338.193 178.459 336.667 178.944 335.424 179.931C334.922 180.329 334.892 181.198 335.194 181.713C335.537 182.299 336.212 182.521 336.856 182.389C338.261 182.1 339.542 181.245 340.804 180.584C342.271 179.815 341.234 177.198 339.652 177.854Z" fill="#C3D95E"/>
<path d="M359.305 187.548C358.933 186.664 358.004 186.47 357.186 186.834C356.091 187.321 354.707 187.794 354.351 189.089C354.256 189.438 354.412 189.866 354.739 190.041C355.939 190.684 357.209 190.029 358.337 189.564C359.158 189.226 359.686 188.452 359.305 187.548Z" fill="#C3D95E"/>
<path d="M396.004 181.926C395.438 181.848 394.872 181.769 394.307 181.691C393.212 181.54 392.109 182.138 392.109 183.366C392.109 184.584 393.21 185.192 394.307 185.042C394.873 184.964 395.439 184.885 396.004 184.807C397.432 184.61 397.432 182.123 396.004 181.926Z" fill="#C3D95E"/>
<path d="M440.9 157.403C439.28 156.88 437.59 156.996 436.164 157.957C435.449 158.438 435.093 159.304 435.453 160.126C435.795 160.904 436.651 161.372 437.501 161.131C438.301 160.905 439.133 160.784 439.914 160.982C442.239 161.569 443.166 158.134 440.9 157.403Z" fill="#C3D95E"/>
<path d="M439.823 131.803C439.359 131.01 438.397 130.832 437.615 131.224C436.635 131.714 435.635 132.177 434.681 132.718C434.243 132.966 433.825 133.562 433.893 134.091C433.952 134.545 434.032 134.883 434.359 135.216C434.9 135.767 435.634 135.75 436.286 135.465C437.291 135.026 438.262 134.503 439.243 134.013C440.024 133.621 440.243 132.52 439.823 131.803Z" fill="#C3D95E"/>
<path d="M424.547 183.634C424.086 182.846 422.846 182.392 422.042 182.977C421.652 183.26 421.468 183.353 421.164 183.432C420.558 183.59 420.077 183.693 419.597 184.162C419.007 184.736 418.885 185.979 419.597 186.532C420.393 187.148 421.181 187.278 422.147 187C422.77 186.822 423.375 186.534 423.89 186.139C424.674 185.539 425.091 184.564 424.547 183.634Z" fill="#FFF232"/>
<path d="M406.707 202.66C406.094 202.739 405.481 202.818 404.868 202.897C404.404 202.956 403.945 202.962 403.528 203.206C403.213 203.39 402.927 203.683 402.66 203.931C401.765 204.758 402.272 206.204 403.349 206.541C404.118 206.781 404.723 206.819 405.489 206.568L407.162 206.019C407.966 205.755 408.516 205.002 408.387 204.141C408.273 203.39 407.56 202.55 406.707 202.66Z" fill="#FFF232"/>
<path d="M368.196 215.523C367.583 214.91 366.524 214.898 365.913 215.523C365.724 215.717 365.539 215.857 365.266 215.947C363.397 216.558 364.16 219.261 366.074 218.878C366.889 218.715 367.556 218.322 368.196 217.806C368.874 217.259 368.766 216.093 368.196 215.523Z" fill="#FFF232"/>
<path d="M374.772 252.029C374.375 251.351 373.352 251.002 372.663 251.476C372.227 251.776 371.787 252.064 371.39 252.413C370.83 252.905 370.83 253.846 371.271 254.4C371.751 255.003 372.541 255.15 373.224 254.79C373.574 254.605 373.894 254.363 374.219 254.138C374.904 253.667 375.215 252.785 374.772 252.029Z" fill="#FFF232"/>
<path d="M463.245 183.602C462.781 184.018 462.272 184.401 461.95 184.943C461.672 185.409 461.3 185.983 461.349 186.539C461.394 187.039 461.713 187.362 462.216 187.406C462.773 187.456 463.345 187.083 463.812 186.806C464.354 186.484 464.738 185.974 465.153 185.51C466.314 184.214 464.541 182.44 463.245 183.602Z" fill="#FFF232"/>
<path d="M475.797 222.226C475.311 222.585 474.829 222.934 474.385 223.345C472.931 224.691 475.212 226.973 476.559 225.518C476.969 225.074 477.318 224.592 477.677 224.106C478.477 223.019 476.883 221.425 475.797 222.226Z" fill="#FFF232"/>
<path d="M466.47 248.32C465.991 247.502 464.942 247.261 464.13 247.707C463.074 248.283 461.204 248.909 460.992 250.25C460.855 251.116 461.21 251.763 462.035 252.087C463.309 252.59 464.814 251.283 465.858 250.66C466.648 250.187 466.938 249.123 466.47 248.32Z" fill="#FFF232"/>
<path d="M482.186 254.923C481.556 253.946 480.466 253.729 479.45 254.205C478.916 254.455 478.367 254.687 477.844 254.96C477.252 255.267 476.805 255.737 476.337 256.206C475.874 256.67 475.736 257.4 475.998 257.997C476.236 258.537 476.853 259.08 477.495 259.005C478.292 258.911 479.033 258.854 479.77 258.504C480.341 258.232 480.903 257.94 481.47 257.659C482.408 257.193 482.745 255.789 482.186 254.923Z" fill="#FFF232"/>
<path d="M450.561 167.746C449.196 168.544 447.48 170.12 447.588 171.838C447.643 172.706 448.736 173.298 449.398 172.588C449.874 172.077 450.104 171.48 450.499 170.917C450.826 170.45 451.254 170.057 451.728 169.743C452.962 168.931 451.858 166.989 450.561 167.746Z" fill="#FFF232"/>
<path d="M374.442 271.633C374.155 271.921 373.874 272.08 373.486 272.17C372.852 272.317 372.423 272.604 372.003 272.994C371.571 273.395 371.571 274.177 372.003 274.577C372.315 274.865 372.706 275.093 373.12 275.203C373.686 275.354 374.229 275.127 374.729 274.879C375.474 274.51 376.063 273.922 376.523 273.238C377.376 271.973 375.49 270.587 374.442 271.633Z" fill="#F16862"/>
<path d="M370.909 300.399C370.441 299.6 369.457 299.406 368.668 299.812C367.667 300.325 366.621 300.77 365.752 301.491C364.482 302.542 365.844 304.712 367.344 304.226C368.41 303.88 369.361 303.205 370.322 302.642C371.084 302.193 371.357 301.163 370.909 300.399Z" fill="#F16862"/>
<path d="M419.403 270.284C418.948 270.442 418.435 270.569 418.025 270.822C417.607 271.081 417.274 271.448 416.926 271.791C415.805 272.897 416.95 274.812 418.45 274.409C418.92 274.282 419.423 274.19 419.847 273.94C420.266 273.693 420.628 273.337 420.997 273.022C422.232 271.97 420.919 269.757 419.403 270.284Z" fill="#F16862"/>
<path d="M474.124 284.476C473.492 283.844 472.367 283.812 471.738 284.476C471.339 284.898 471.143 285.058 470.641 285.322C470.354 285.472 470.188 285.474 469.849 285.735C469.465 286.031 469.316 286.405 469.142 286.842C468.904 287.439 469.305 288.163 469.807 288.473C471.31 289.407 473.131 287.992 474.123 286.86C474.723 286.175 474.797 285.149 474.124 284.476Z" fill="#F16862"/>
<path d="M483.629 271.948C483.43 271.942 483.231 271.936 483.034 271.93C481.18 271.87 481.178 274.87 483.034 274.81C483.233 274.804 483.431 274.798 483.629 274.791C485.457 274.732 485.459 272.006 483.629 271.948Z" fill="#F16862"/>
<path d="M473.169 320.589C472.636 319.92 471.542 319.569 470.776 320.112C470.051 320.625 469.316 321.14 468.88 321.94C468.172 323.239 469.335 324.67 470.741 324.362C471.636 324.165 472.328 323.581 473.025 323.026C473.738 322.458 473.688 321.242 473.169 320.589Z" fill="#F16862"/>
<path d="M438.448 343.435L436.619 344.827C435.903 345.371 435.589 346.266 436.194 347.051C436.774 347.802 437.764 347.795 438.453 347.204C439.035 346.704 439.618 346.205 440.201 345.705C441.428 344.652 439.76 342.436 438.448 343.435Z" fill="#F16862"/>
<path d="M458.082 352.961C457.83 352.047 456.726 351.293 455.77 351.648C454.552 352.101 453.066 352.65 452.635 354.017C452.546 354.298 452.633 354.688 452.864 354.884C453.964 355.819 455.472 355.536 456.769 355.272C457.765 355.07 458.337 353.891 458.082 352.961Z" fill="#F16862"/>
<path d="M354.124 324.259C353.534 324.891 353.007 325.545 352.252 325.987C351.654 326.339 351.4 327.106 351.678 327.739C351.935 328.324 352.673 328.81 353.334 328.552C354.617 328.051 355.821 327.329 356.509 326.098C357.33 324.628 355.332 322.969 354.124 324.259Z" fill="#FFC30C"/>
<path d="M337.011 349.868C335.797 350.524 334.518 351.109 333.447 351.982C332.428 352.814 333.524 354.611 334.731 354.188C336.034 353.733 337.207 352.929 338.397 352.239C339.929 351.351 338.566 349.027 337.011 349.868Z" fill="#FFC30C"/>
<path d="M391.733 349.218C390.948 348.758 389.843 349.022 389.394 349.831C389.354 349.902 389.016 350.372 389.16 350.209C389.081 350.298 389 350.381 388.914 350.462C388.767 350.586 388.735 350.617 388.817 350.552C388.627 350.698 387.953 351.128 387.828 351.209C387.232 351.596 386.902 352.306 387.095 353.01C387.272 353.654 387.94 354.226 388.632 354.181C389.603 354.116 390.292 353.832 391.039 353.212C391.581 352.765 392.032 352.186 392.348 351.559C392.762 350.733 392.566 349.704 391.733 349.218Z" fill="#FFC30C"/>
<path d="M387.427 367.797C387.241 367.12 386.441 366.59 385.737 366.838C385.107 367.061 384.388 367.229 383.825 367.594C383.352 367.902 382.816 368.587 382.995 369.204C383.151 369.74 383.87 370.049 384.383 370.06C385.093 370.075 385.809 369.719 386.466 369.486C387.167 369.239 387.635 368.55 387.427 367.797Z" fill="#FFC30C"/>
<path d="M415.501 356.714C413.914 355.768 411.633 356.638 410.729 358.145C410.118 359.164 410.909 360.425 412.052 360.452C412.657 360.467 413.22 360.365 413.807 360.236C414.404 360.104 414.989 360.036 415.501 359.667C416.522 358.933 416.682 357.417 415.501 356.714Z" fill="#FFC30C"/>
<path d="M452.993 378.1C452.295 377.194 451.12 377.185 450.269 377.853C450.125 377.912 449.984 377.972 449.842 378.034C449.673 378.131 449.52 378.243 449.34 378.324C448.862 378.541 448.579 379.152 448.579 379.65C448.579 380.236 448.889 380.646 449.34 380.976C450.292 381.677 451.545 381.565 452.467 380.86C453.354 380.183 453.747 379.077 452.993 378.1Z" fill="#FFC30C"/>
<path d="M424.953 405.808C423.785 405.698 422.712 405.902 421.653 406.397C421.108 406.652 420.558 406.957 420.226 407.478C420.024 407.798 419.883 408.152 419.883 408.537C419.904 408.689 419.924 408.841 419.945 408.993C419.915 408.771 419.903 408.767 419.91 408.981C419.902 409.424 420.251 409.939 420.706 410.027C420.727 410.031 420.748 410.037 420.769 410.04C421.457 410.429 422.26 410.148 422.998 409.904C423.644 409.689 424.304 409.567 424.954 409.568C425.969 409.569 426.833 408.703 426.833 407.689C426.833 406.593 425.968 405.903 424.953 405.808Z" fill="#FFC30C"/>
<path d="M390.478 412.411C390.265 411.642 389.598 411.259 388.852 411.173C388.167 411.094 387.515 411.397 386.881 411.615C386.118 411.876 385.59 412.573 385.715 413.399C385.826 414.14 386.495 414.88 387.314 414.811C388.138 414.74 388.97 414.746 389.703 414.316C390.346 413.939 390.675 413.132 390.478 412.411Z" fill="#FFC30C"/>
<path d="M389.65 432.618C389.118 431.707 388.039 431.531 387.145 431.96C385.675 432.667 384.148 433.239 382.956 434.375C382.45 434.858 382.36 435.698 382.708 436.294C383.091 436.946 383.792 437.127 384.496 437.021C386.1 436.778 387.552 435.84 388.993 435.123C389.879 434.683 390.127 433.429 389.65 432.618Z" fill="#FFC30C"/>
<path d="M346.664 385.55C346.435 384.714 345.643 384.399 344.856 384.524C344.324 384.608 343.852 384.77 343.345 384.945C342.708 385.164 342.268 385.743 342.373 386.435C342.467 387.061 343.022 387.658 343.706 387.612C344.361 387.567 344.999 387.518 345.638 387.357C346.408 387.166 346.87 386.303 346.664 385.55Z" fill="#FFC30C"/>
<path d="M316.116 363.048C315.988 362.197 315.242 361.408 314.318 361.461C313.155 361.529 312.05 361.658 310.91 361.906C308.923 362.338 309.373 365.48 311.387 365.437C312.553 365.412 313.657 365.264 314.804 365.058C315.69 364.899 316.24 363.874 316.116 363.048Z" fill="#E6E873"/>
<path d="M275.867 378.062C275.175 378.116 274.403 378.091 273.739 378.302C272.435 378.718 272.434 380.536 273.739 380.952C274.403 381.164 275.172 381.138 275.867 381.192C277.881 381.353 277.885 377.902 275.867 378.062Z" fill="#E6E873"/>
<path d="M330.14 389.517C329.069 389.808 327.997 390.101 326.926 390.392C325.906 390.669 324.724 390.772 324.035 391.643C323.361 392.492 323.617 393.541 324.641 393.938C325.688 394.345 326.766 393.833 327.797 393.552C328.868 393.261 329.94 392.969 331.01 392.678C333.042 392.124 332.18 388.961 330.14 389.517Z" fill="#E6E873"/>
<path d="M277.428 449.337C276.919 448.466 275.849 448.258 274.989 448.698C274.031 449.189 272.848 449.745 272.609 450.915C272.44 451.741 272.841 452.607 273.703 452.841C274.904 453.167 275.876 452.448 276.789 451.778C277.563 451.207 277.95 450.229 277.428 449.337Z" fill="#E6E873"/>
<path d="M299.443 474.32C299.156 473.279 298.171 472.886 297.19 473.041C295.387 473.326 293.846 474.265 292.803 475.753C292.331 476.424 292.616 477.44 293.231 477.899C293.95 478.437 294.739 478.291 295.415 477.769C296.27 477.109 297.108 476.722 298.163 476.572C299.144 476.433 299.681 475.186 299.443 474.32Z" fill="#E6E873"/>
<path d="M358.276 462.474C358.008 461.621 357.345 460.858 356.421 460.733C355.596 460.622 354.789 460.955 354.2 461.528C353.06 462.633 354.195 464.883 355.786 464.357C355.955 464.401 356.123 464.414 356.292 464.386C357.403 464.656 358.675 463.737 358.276 462.474Z" fill="#E6E873"/>
<path d="M351.731 428.53L351.097 429.164C349.735 430.526 351.848 432.637 353.209 431.277L353.843 430.643C355.205 429.281 353.093 427.168 351.731 428.53Z" fill="#E6E873"/>
<path d="M219.594 364.831L218.443 365.467C217.833 365.804 217.381 366.728 217.65 367.418C217.762 367.705 217.848 367.976 218.094 368.18C218.834 368.79 219.798 368.866 220.537 368.18C220.856 367.884 221.174 367.588 221.493 367.29C222.82 366.057 221.125 363.985 219.594 364.831Z" fill="#F05C4E"/>
<path d="M206.946 391.759C205.965 391.49 205.028 392.09 204.723 393.02C204.677 393.161 204.67 393.185 204.681 393.145C204.685 393.134 204.681 393.143 204.69 393.117C204.696 393.101 204.691 393.109 204.693 393.098V393.097C204.708 393.049 204.695 393.064 204.655 393.134C204.647 393.144 204.649 393.139 204.635 393.154C204.603 393.183 204.602 393.188 204.596 393.197C204.516 393.243 204.423 393.293 204.408 393.305C204.198 393.388 203.982 393.451 203.789 393.584C203.211 393.989 202.849 394.587 202.959 395.317C203.057 395.966 203.526 396.615 204.205 396.763C206.043 397.165 207.67 395.62 208.206 393.98C208.511 393.054 207.854 392.008 206.946 391.759Z" fill="#F05C4E"/>
<path d="M248.575 373.592C247.887 373.464 247.118 373.379 246.438 373.602C245.765 373.824 244.92 374.345 244.636 375.017C244.404 375.565 244.318 376.093 244.636 376.638C244.916 377.117 245.461 377.448 246.023 377.434C246.475 377.421 246.891 377.275 247.327 377.173C247.507 377.131 247.682 377.08 247.859 377.024C247.913 377.008 247.94 376.998 247.959 376.99C247.966 376.997 247.999 377.003 248.114 377.001C248.971 376.981 249.715 376.357 249.817 375.497C249.912 374.704 249.435 373.753 248.575 373.592Z" fill="#F05C4E"/>
<path d="M260.949 433.259C260.561 432.338 259.195 431.657 258.283 432.36C257.871 432.678 257.461 432.996 257.049 433.313C256.429 433.791 256.066 434.494 256.407 435.271C256.721 435.985 257.484 436.38 258.256 436.179L259.732 435.794C260.824 435.509 261.377 434.274 260.949 433.259Z" fill="#F05C4E"/>
<path d="M238.567 460.939C237.891 460.263 236.935 460.376 236.25 460.939C235.478 461.574 234.575 462.093 233.639 462.444C232.824 462.751 232.265 463.535 232.51 464.431C232.728 465.222 233.674 465.858 234.498 465.559C236.004 465.014 237.32 464.259 238.567 463.256C239.257 462.702 239.144 461.518 238.567 460.939Z" fill="#F05C4E"/>
<path d="M254.709 472.806C254.481 471.974 253.667 471.612 252.871 471.762C251.436 472.035 249.772 472.147 248.972 473.571C248.734 473.994 248.897 474.457 249.274 474.724C250.606 475.668 252.254 475.004 253.665 474.642C254.447 474.443 254.92 473.573 254.709 472.806Z" fill="#F05C4E"/>
<path d="M177.517 448.809C177.115 449.031 176.688 449.231 176.303 449.481C175.757 449.836 175.54 450.356 175.445 450.969C175.345 451.616 175.604 452.148 176.243 452.375C176.832 452.585 177.403 452.654 177.981 452.35C178.384 452.138 178.763 451.843 179.146 451.595C180.884 450.472 179.346 447.795 177.517 448.809Z" fill="#F05C4E"/>
<path d="M175.556 325.197C173.932 325.359 172.376 325.519 170.797 325.942C169.211 326.366 169.677 328.512 171.165 328.653C172.654 328.794 174.066 328.716 175.556 328.617C176.478 328.557 177.267 327.875 177.267 326.906C177.267 326.054 176.482 325.104 175.556 325.197Z" fill="#CE60A3"/>
<path d="M154.566 350.524L150.93 351.849C149.858 352.239 148.495 352.475 147.763 353.397C147.273 354.017 147.331 355.142 148.274 355.33C149.507 355.577 150.536 355 151.681 354.573C152.89 354.121 154.1 353.67 155.31 353.22C156.976 352.597 156.266 349.905 154.566 350.524Z" fill="#CE60A3"/>
<path d="M126.409 352.749C124.991 352.245 123.079 352.393 121.977 353.528C120.899 354.641 122.013 356.217 123.401 355.973C124.175 355.836 124.809 355.588 125.576 355.768C127.556 356.234 128.296 353.418 126.409 352.749Z" fill="#CE60A3"/>
<path d="M106.926 372.107C105.769 372.363 103.892 372.561 103.32 373.779C103.002 374.456 103.171 375.111 103.784 375.548C104.89 376.333 106.641 375.57 107.784 375.221C109.776 374.611 108.954 371.66 106.926 372.107Z" fill="#CE60A3"/>
<path d="M140.793 430.47C139.951 430.312 138.961 430.153 138.11 430.369C137.741 430.463 137.363 430.635 137.044 430.844C136.802 431.001 136.571 431.194 136.4 431.424C136.295 431.529 136.224 431.653 136.183 431.796C136.101 432.034 136.078 432.068 136.114 431.895C135.601 432.586 136.099 433.473 136.761 433.799C137.668 434.39 138.937 434.178 139.729 434.326C140.754 434.519 141.936 434.042 142.189 432.93C142.413 431.947 141.892 430.676 140.793 430.47Z" fill="#CE60A3"/>
<path d="M168.555 425.154C168.292 424.196 167.301 423.684 166.361 423.909C165.028 424.227 163.711 424.578 162.463 425.162C161.119 425.793 161.87 427.775 163.181 427.812C164.568 427.85 165.949 427.59 167.309 427.347C168.257 427.178 168.793 426.021 168.555 425.154Z" fill="#CE60A3"/>
<path d="M187.949 388.868C186.909 389.11 186.012 389.464 185.383 390.378C184.88 391.11 185.537 392.359 186.459 392.253C187.581 392.124 188.305 391.543 189.027 390.72C189.754 389.892 189.059 388.609 187.949 388.868Z" fill="#CE60A3"/>
<path d="M203.312 361.782C202.686 361.782 202.208 361.879 201.631 362.124C200.685 362.528 200.685 364.215 201.631 364.619C202.204 364.863 202.687 364.962 203.312 364.962C205.357 364.963 205.36 361.782 203.312 361.782Z" fill="#CE60A3"/>
<path d="M93.0859 388.996C92.5629 388.951 92.1312 389.107 91.6711 389.327C90.609 389.837 90.609 391.623 91.6711 392.132C92.1299 392.353 92.5691 392.507 93.0859 392.464C94.0197 392.385 94.8202 391.723 94.8202 390.73C94.8215 389.726 94.0234 389.074 93.0859 388.996Z" fill="#CE60A3"/>
<path d="M57.9891 272.614C57.5241 272.029 56.541 271.7 55.8724 272.191C55.3753 272.556 55.0879 272.705 54.5538 272.85C53.6496 273.094 53.0958 274.083 53.3425 274.984C53.5731 275.825 54.5945 276.527 55.4752 276.195C56.3782 275.856 57.1393 275.414 57.8609 274.77C58.4641 274.23 58.4702 273.218 57.9891 272.614Z" fill="#FFCB31"/>
<path d="M88.4735 277.398C88.075 276.717 87.0858 276.402 86.3962 276.854C85.6499 277.342 84.9024 277.831 84.1561 278.32C83.2507 278.912 82.3194 279.372 82.2676 280.578C82.2417 281.196 82.7105 281.69 83.2581 281.879C84.2869 282.233 85.064 281.502 85.8461 280.948C86.5405 280.457 87.2338 279.966 87.927 279.475C88.598 279.001 88.9138 278.149 88.4735 277.398Z" fill="#FFCB31"/>
<path d="M64.6584 307.816C64.424 306.964 63.3879 306.251 62.4948 306.588C61.1527 307.095 59.8107 307.602 58.4686 308.109C57.731 308.387 57.1228 309.007 57.1426 309.849C57.1549 310.381 57.3276 310.737 57.6717 311.126C58.0554 311.56 58.8757 311.813 59.4283 311.59C60.7617 311.053 62.0964 310.516 63.4298 309.979C64.3105 309.625 64.931 308.807 64.6584 307.816Z" fill="#FFCB31"/>
<path d="M79.9539 343.498C79.2483 343.085 78.4071 343.364 77.9766 344.018C77.6275 344.547 77.4215 345.003 77.2537 345.614C77.1094 346.138 77.3487 346.726 77.8187 347.001C78.3244 347.297 78.877 347.154 79.3075 346.809C79.8083 346.408 80.1216 346.011 80.4732 345.477C80.9025 344.824 80.6015 343.878 79.9539 343.498Z" fill="#FFCB31"/>
<path d="M136.303 271.059C135.716 271.129 135.129 271.199 134.542 271.27C133.557 271.388 132.767 272.069 132.912 273.15C133.043 274.12 134.013 274.804 134.982 274.529C135.557 274.366 136.132 274.203 136.707 274.04C137.428 273.835 137.906 273.115 137.793 272.375C137.693 271.703 137.062 270.967 136.303 271.059Z" fill="#FFCB31"/>
<path d="M161.769 288.466C161.022 287.89 160.132 288.172 159.609 288.878C159.096 289.571 158.085 289.745 157.42 290.314C156.646 290.975 157.179 292.067 157.964 292.373C158.695 292.658 159.655 292.353 160.315 292.005C160.932 291.679 161.49 291.209 161.917 290.659C162.453 289.97 162.533 289.056 161.769 288.466Z" fill="#FFCB31"/>
<path d="M163.681 313.233C163.166 312.354 161.99 312.045 161.11 312.558C160.364 312.993 159.561 313.391 158.863 313.9C158.029 314.507 157.535 315.644 158.153 316.604C158.737 317.509 159.897 317.863 160.857 317.313C161.61 316.883 162.302 316.308 163.007 315.803C163.831 315.214 164.227 314.166 163.681 313.233Z" fill="#FFCB31"/>
<path d="M78.4166 167.447C76.422 167.412 72.909 167.73 72.1861 170.012C71.9949 170.616 72.4131 171.221 72.9768 171.405C73.8131 171.678 74.8592 171.322 75.6992 171.125C76.6243 170.908 77.4582 170.7 78.4154 170.675C80.4914 170.622 80.4988 167.482 78.4166 167.447Z" fill="#CD539D"/>
<path d="M67.5747 202.323C67.08 201.478 66.0957 201.33 65.268 201.717C63.9654 202.328 62.4556 202.835 61.2714 203.65C59.8343 204.641 60.6805 207.001 62.4889 206.539C64.0135 206.151 65.5295 205.265 66.969 204.629C67.8029 204.262 67.9965 203.046 67.5747 202.323Z" fill="#CD539D"/>
<path d="M113.712 185.589C113.112 185.938 112.513 186.286 111.913 186.634C110.248 187.602 111.736 190.146 113.422 189.216C114.029 188.88 114.636 188.546 115.244 188.211C116.952 187.268 115.407 184.604 113.712 185.589Z" fill="#CD539D"/>
<path d="M71.6167 240.821C70.8569 239.904 69.5395 240.043 68.5391 240.429C67.4437 240.852 66.6407 241.538 66.204 242.643C65.9623 243.255 66.3237 244.056 66.8097 244.418C67.3709 244.838 68.063 244.874 68.6846 244.55C68.9017 244.438 69.0905 244.284 69.3026 244.162C69.4112 244.099 69.5234 244.047 69.6295 243.979C69.6838 243.948 69.7393 243.919 69.7936 243.888C69.6653 243.931 69.6616 243.931 69.7837 243.889C69.9021 243.846 70.0218 243.816 70.1439 243.786C70.2549 243.763 70.266 243.758 70.1772 243.772C70.0378 243.789 70.0995 243.781 70.3622 243.746C70.8519 243.655 71.2763 243.444 71.618 243.07C72.2384 242.393 72.1866 241.508 71.6167 240.821Z" fill="#CD539D"/>
<path d="M103.413 255.01C102.801 255.24 102.19 255.468 101.578 255.698C100.81 255.985 100.035 256.234 99.8273 257.128C99.7089 257.64 99.9026 258.225 100.381 258.489C101.206 258.944 101.875 258.607 102.637 258.209C103.218 257.906 103.798 257.603 104.379 257.3C105.615 256.655 104.758 254.507 103.413 255.01Z" fill="#CD539D"/>
<path d="M162.472 213.712C161.366 213.677 160.158 214.092 159.409 214.934C158.843 215.57 158.725 216.496 159.275 217.187C159.758 217.794 160.793 218.148 161.489 217.629C161.663 217.499 161.986 217.277 162.062 217.243C161.954 217.292 162.161 217.248 162.197 217.228C162.297 217.23 162.474 217.232 162.472 217.232C163.422 217.287 164.231 216.384 164.231 215.473C164.231 214.492 163.426 213.743 162.472 213.712Z" fill="#CD539D"/>
<path d="M163.283 237.546C162.435 238.046 161.588 238.544 160.74 239.044C159.058 240.034 160.584 242.659 162.272 241.665C163.12 241.166 163.967 240.667 164.815 240.168C166.497 239.177 164.971 236.552 163.283 237.546Z" fill="#CD539D"/>
<path d="M148.298 88.705C147.447 89.5178 146.373 89.994 145.306 90.4615C144.011 91.0289 144.631 93.3578 146.044 93.1839C146.958 93.0716 147.737 92.8669 148.542 92.403C149.251 91.9948 149.906 91.4693 150.479 90.8858C151.873 89.4673 149.734 87.3333 148.298 88.705Z" fill="#FFF22E"/>
<path d="M133.199 109.134C132.621 108.978 132.008 108.89 131.408 108.932C130.529 108.993 129.939 109.281 129.282 109.847C128.174 110.803 129.021 113.018 130.531 112.863C131.002 112.815 131.455 112.772 131.91 112.643C131.941 112.634 132.136 112.597 132.177 112.583C132.362 112.569 132.548 112.576 132.732 112.59C134.737 112.728 135.08 109.645 133.199 109.134Z" fill="#FFF22E"/>
<path d="M173.601 115.818C173.374 114.992 172.364 114.292 171.497 114.624C171.054 114.793 170.611 114.959 170.17 115.131C169.496 115.392 169.08 115.714 168.699 116.321C168.198 117.12 168.68 118.248 169.578 118.48C170.147 118.628 170.651 118.65 171.2 118.423C171.602 118.256 172.004 118.089 172.407 117.922C173.26 117.568 173.869 116.787 173.601 115.818Z" fill="#FFF22E"/>
<path d="M95.0696 139.903C92.7136 139.903 92.7087 143.566 95.0696 143.566C97.4257 143.566 97.4294 139.903 95.0696 139.903Z" fill="#FFF22E"/>
<path d="M165.337 191.22C164.144 190.905 162.602 191.578 161.931 192.619C161.517 193.262 161.829 194.083 162.418 194.476C162.911 194.804 163.522 194.801 164.093 194.874C164.92 194.98 165.482 194.703 166.124 194.199C167.211 193.349 166.52 191.534 165.337 191.22Z" fill="#FFF22E"/>
<path d="M200.941 168.848C200.616 168.11 199.721 167.547 198.894 167.844C198.289 168.061 197.682 168.274 197.079 168.496C196.639 168.659 196.174 168.789 195.833 169.13C195.598 169.365 195.418 169.693 195.233 169.969C194.744 170.698 195.227 171.81 196.061 172.005C196.396 172.083 196.759 172.201 197.105 172.201C197.595 172.201 198.021 171.96 198.46 171.773C199.051 171.52 199.641 171.266 200.231 171.013C201.014 170.679 201.25 169.554 200.941 168.848Z" fill="#FFF22E"/>
<path d="M190.049 191.891C189.669 190.99 188.699 190.763 187.862 191.154C187.138 191.492 186.63 191.775 186.382 192.587C186.227 193.092 186.495 193.553 186.891 193.839C187.581 194.336 188.286 194.133 189.05 193.972C189.961 193.781 190.384 192.689 190.049 191.891Z" fill="#FFF22E"/>
<path d="M173.185 73.3833C172.493 73.7706 171.817 74.1456 171.181 74.6205C170.723 74.9622 170.336 75.2977 170.119 75.8405C169.884 76.4276 169.932 77.1209 170.335 77.6266C171.904 79.5966 174.029 77.0321 175.082 75.8417C176.238 74.5367 174.789 72.4878 173.185 73.3833Z" fill="#F0584E"/>
<path d="M198.204 74.776C197.676 75.2891 197.148 75.801 196.62 76.3142C196.387 76.5399 196.133 76.757 195.916 76.9975C195.573 77.3787 195.409 77.8536 195.223 78.3211C194.846 79.266 195.996 80.4168 196.942 80.0406C197.344 79.8803 197.753 79.7433 198.098 79.4769C198.411 79.2364 198.674 78.9268 198.949 78.6431C199.462 78.1151 199.974 77.5872 200.487 77.0592C201.935 75.5666 199.697 73.3266 198.204 74.776Z" fill="#F0584E"/>
<path d="M233.841 52.4751C232.616 52.501 231.425 52.8045 230.356 53.4102C229.168 54.0837 227.879 55.4097 228.296 56.9232C228.506 57.6831 229.129 58.2196 229.923 58.2529C230.617 58.2826 231.158 58.0285 231.636 57.7472C232.21 57.4117 232.33 57.1267 232.803 56.8763C233.094 56.7222 233.537 56.5914 233.839 56.5692C234.942 56.4878 235.887 55.686 235.887 54.5216C235.888 53.4299 234.951 52.4517 233.841 52.4751Z" fill="#F0584E"/>
<path d="M257.751 71.8304C257.031 71.11 255.852 71.1322 255.128 71.8304C254.792 72.1536 254.434 72.4632 254.13 72.8148C253.779 73.2181 253.538 73.7091 253.27 74.1692C252.482 75.5236 254.056 77.1 255.412 76.3118C255.874 76.0441 256.362 75.8036 256.767 75.452C257.118 75.1474 257.428 74.7884 257.751 74.4541C258.447 73.7337 258.469 72.5483 257.751 71.8304Z" fill="#F0584E"/>
<path d="M222.972 153.608C222.556 152.897 221.453 152.503 220.731 153.021C220.013 153.535 219.417 154.099 218.896 154.813C218.317 155.607 218.143 156.397 218.325 157.363C218.531 158.449 219.842 158.507 220.547 157.948C221.238 157.402 221.72 156.345 222.385 155.849C223.091 155.32 223.453 154.432 222.972 153.608Z" fill="#F0584E"/>
<path d="M238.91 159.024C237.695 159.308 236.711 159.641 236.014 160.745C235.464 161.616 235.991 162.868 236.978 163.116C238.269 163.44 239.212 162.968 240.301 162.326C242.096 161.272 240.891 158.562 238.91 159.024Z" fill="#F0584E"/>
<path d="M256.575 139.887C255.963 140.45 255.319 140.996 254.911 141.734C253.985 143.405 256.111 144.967 257.499 143.731C258.121 143.177 258.512 142.41 258.921 141.698C259.782 140.202 257.813 138.748 256.575 139.887Z" fill="#F0584E"/>
<path d="M196.57 216.672C197.884 216.672 198.949 215.606 198.949 214.292C198.949 212.978 197.884 211.913 196.57 211.913C195.256 211.913 194.19 212.978 194.19 214.292C194.19 215.606 195.256 216.672 196.57 216.672Z" fill="#EC1B33"/>
<path d="M334.152 216.672C335.466 216.672 336.531 215.606 336.531 214.292C336.531 212.978 335.466 211.913 334.152 211.913C332.838 211.913 331.772 212.978 331.772 214.292C331.772 215.606 332.838 216.672 334.152 216.672Z" fill="#EC1B33"/>
<g clip-path="url(#clip0_233_495)">
<path d="M236.692 257H224.948C223.322 257 222 258.279 222 259.851V269.829C222 270.6 222.329 271.348 222.904 271.883L223.139 272.102C224.289 273.174 226.09 273.17 227.235 272.092C227.586 271.762 228.148 271.75 228.511 272.065L228.767 272.283C229.325 272.762 230.023 273 230.722 273C230.754 273 230.784 272.996 230.817 272.996C230.849 272.996 230.879 273 230.911 273C231.61 273 232.311 272.762 232.866 272.283L233.122 272.065C233.488 271.752 234.049 271.762 234.398 272.092C235.545 273.168 237.344 273.172 238.494 272.102L238.729 271.883C239.302 271.348 239.633 270.6 239.633 269.829V259.851C239.633 258.279 238.311 257 236.685 257H236.692ZM237.63 269.829C237.63 270.075 237.525 270.313 237.344 270.483L237.109 270.701C236.742 271.041 236.171 271.041 235.805 270.7C234.705 269.664 232.944 269.627 231.796 270.612L231.539 270.832C231.337 271.006 231.075 271.078 230.823 271.053C230.57 271.078 230.308 271.006 230.106 270.832L229.849 270.612C228.701 269.627 226.942 269.666 225.84 270.7C225.475 271.041 224.903 271.043 224.536 270.701L224.302 270.483C224.118 270.313 224.015 270.075 224.015 269.829V259.851C224.015 259.351 224.435 258.943 224.954 258.943H236.698C237.214 258.943 237.636 259.351 237.636 259.851V269.829H237.63Z" fill="#D381B5"/>
<path d="M244.523 272.07H253.269V269.688H247.545V265.823H252.621V263.505H247.545V259.849H253.269V257.469H244.523V272.07Z" fill="#D381B5"/>
<path d="M264.239 268.331L259.444 257.488H256.01V272.07H259.035V262.585L263.095 272.07H265.384L269.422 262.585V272.07H272.446V257.488H269.034L264.239 268.331Z" fill="#D381B5"/>
<path d="M280.974 257.488H275.424V272.068H278.449V266.47H280.976C284.865 266.47 286.419 264.214 286.419 261.999C286.419 259.472 284.604 257.488 280.976 257.488H280.974ZM280.845 264.11H278.449V259.871H280.845C282.551 259.871 283.308 260.666 283.308 262.001C283.308 263.337 282.551 264.11 280.845 264.11Z" fill="#D381B5"/>
<path d="M287.756 259.849H291.773V272.07H294.796V259.849H298.813V257.488H287.756V259.849Z" fill="#D381B5"/>
<path d="M309.633 257.488L306.414 264.153L303.174 257.488H299.762L304.88 266.993V272.07H307.904V266.993L313 257.488H309.633Z" fill="#D381B5"/>
</g>
<defs>
<linearGradient id="paint0_linear_233_495" x1="287" y1="128" x2="267" y2="301.5" gradientUnits="userSpaceOnUse">
<stop stop-color="#FF82E0"/>
<stop offset="1" stop-color="white"/>
</linearGradient>
<clipPath id="clip0_233_495">
<rect width="91" height="16" fill="white" transform="translate(222 257)"/>
</clipPath>
</defs>
</svg>
