<svg width="56" height="56" viewBox="0 0 56 56" fill="none" xmlns="http://www.w3.org/2000/svg">
<path d="M9.60975 26.6397C10.1959 26.6397 10.758 26.4069 11.1725 25.9924C11.5869 25.578 11.8197 25.0159 11.8197 24.4297C11.8197 23.8436 11.5869 23.2815 11.1725 22.867C10.758 22.4526 10.1959 22.2197 9.60975 22.2197H2.19975C1.91193 22.2188 1.62678 22.2749 1.36075 22.3847C1.09471 22.4946 0.853067 22.656 0.649747 22.8597C0.338928 23.1677 0.1265 23.5609 0.0393772 23.9897C-0.0477459 24.4184 -0.00564384 24.8634 0.160349 25.2682C0.326343 25.673 0.608757 26.0194 0.971813 26.2636C1.33487 26.5078 1.76223 26.6387 2.19975 26.6397H9.60975Z" fill="#FF83D5"/>
<path d="M13.66 25.4897C13.6206 25.6594 13.5705 25.8264 13.51 25.9897C13.51 26.0897 13.42 26.1797 13.38 26.2697C13.3132 26.4117 13.2364 26.5487 13.15 26.6797C13.0924 26.7704 13.0289 26.8573 12.96 26.9397C12.87 27.0597 12.78 27.1797 12.68 27.2897C12.6492 27.3286 12.6158 27.3654 12.58 27.3997C12.5381 27.4449 12.4911 27.4852 12.44 27.5197L12.1 27.7997L11.82 27.9897C11.699 28.0694 11.5719 28.1396 11.44 28.1997L11.13 28.3397C10.9903 28.3968 10.8466 28.4436 10.7 28.4797L10.36 28.5597H10.29C10.9557 30.688 12.1264 32.6235 13.7023 34.2012C15.2783 35.7788 17.2125 36.9517 19.34 37.6197C19.3356 37.5932 19.3356 37.5662 19.34 37.5397C19.34 37.4197 19.4 37.2997 19.43 37.1797C19.46 37.0597 19.5 36.9097 19.55 36.7797L19.7 36.4497L19.9 36.0797L20.1 35.7897L20.38 35.4597L20.61 35.2197C20.72 35.1197 20.84 35.0297 20.96 34.9397C21.08 34.8497 21.06 34.8397 21.12 34.7997H21.22C21.3512 34.7166 21.4883 34.6431 21.63 34.5797L21.91 34.4397C22.0734 34.3792 22.2404 34.3291 22.41 34.2897L22.66 34.2097C22.927 34.1584 23.1982 34.1316 23.47 34.1297C23.742 34.1306 24.0132 34.1574 24.28 34.2097L24.53 34.2897L25.04 34.4397L25.31 34.5697L25.73 34.7997L26 34.9997L26.34 35.2797L26.46 35.3797L26.58 35.5197C26.67 35.6297 26.77 35.7397 26.85 35.8597C26.9223 35.9489 26.9891 36.0424 27.05 36.1397C27.12 36.2597 27.19 36.3897 27.25 36.5197C27.3081 36.619 27.3582 36.7226 27.4 36.8297C27.45 36.9697 27.49 37.1097 27.53 37.2497C27.57 37.3897 27.6 37.4797 27.62 37.5997C27.6166 37.6263 27.6166 37.6532 27.62 37.6797C29.9978 36.9231 32.1288 35.5416 33.79 33.6797C32.018 31.3705 31.2335 28.4531 31.6084 25.5665C31.9833 22.68 33.487 20.0597 35.79 18.2797C34.963 16.6223 33.8107 15.1484 32.4019 13.9458C30.9931 12.7432 29.3567 11.8365 27.59 11.2797C27.5856 11.3062 27.5856 11.3332 27.59 11.3597C27.59 11.4697 27.53 11.5797 27.5 11.6997C27.47 11.8197 27.42 11.9797 27.37 12.1197C27.3294 12.2257 27.2827 12.3292 27.23 12.4297L27.02 12.8197L26.94 12.9497C26.9058 12.9983 26.8691 13.045 26.83 13.0897C26.74 13.2097 26.64 13.3297 26.54 13.4397C26.4684 13.5213 26.3916 13.5981 26.31 13.6697C26.2 13.7697 26.09 13.8697 25.97 13.9597L25.71 14.1497L25.29 14.3697C25.2041 14.4211 25.1138 14.4646 25.02 14.4997C24.854 14.565 24.6836 14.6184 24.51 14.6597L24.26 14.7297C23.9932 14.7821 23.722 14.8089 23.45 14.8097C23.1782 14.8079 22.907 14.7811 22.64 14.7297L22.39 14.6597C22.2202 14.617 22.0532 14.5635 21.89 14.4997C21.7923 14.4666 21.6984 14.423 21.61 14.3697C21.47 14.2997 21.33 14.2297 21.2 14.1497L21 13.8997L20.65 13.6097L20.54 13.5197L20.42 13.3797C20.32 13.2697 20.23 13.1597 20.14 13.0397C20.05 12.9197 20.01 12.8497 19.95 12.7597C19.89 12.6697 19.81 12.5097 19.74 12.3797L19.59 12.0597C19.54 11.9297 19.51 11.7897 19.47 11.6497C19.43 11.5097 19.4 11.4197 19.38 11.2897C19.3757 11.2666 19.3757 11.2429 19.38 11.2197C17.2688 11.8896 15.3494 13.0567 13.7832 14.6229C12.217 16.1891 11.0499 18.1085 10.38 20.2197H10.45C10.5649 20.2438 10.6783 20.2738 10.79 20.3097L11.22 20.4397L11.53 20.5797L11.91 20.7897L12.19 20.9797C12.31 21.0697 12.42 21.1697 12.53 21.2697L12.67 21.3797C12.7008 21.4186 12.7342 21.4554 12.77 21.4897L13.05 21.8397L13.24 22.0997C13.3243 22.2354 13.4011 22.3756 13.47 22.5197L13.6 22.7897C13.6619 22.956 13.712 23.1264 13.75 23.2997C13.7827 23.381 13.8094 23.4646 13.83 23.5497C13.8824 23.8166 13.9092 24.0878 13.91 24.3597C13.9082 24.6316 13.8814 24.9027 13.83 25.1697C13.72 25.3197 13.69 25.3997 13.66 25.4897ZM42.57 37.9997C39.0115 38.005 35.6001 39.4203 33.083 41.9356C30.5658 44.4509 29.148 47.8612 29.14 51.4197V55.0597H56V51.4197C55.9947 47.8604 54.5778 44.4485 52.06 41.9327C49.5423 39.4168 46.1294 38.0024 42.57 37.9997Z" fill="#FF83D5"/>
<path d="M19.2795 9.15996V5.40996C15.6544 6.20442 12.3333 8.02195 9.71004 10.647C7.08679 13.272 5.2715 16.5944 4.47949 20.22H8.22949C8.95554 17.5772 10.3557 15.1684 12.2928 13.2296C14.2299 11.2907 16.6374 9.8884 19.2795 9.15996ZM25.6995 38.31C25.6993 38.0199 25.6418 37.7328 25.5303 37.4651C25.4187 37.1973 25.2553 36.9543 25.0495 36.75L24.8895 36.62C24.8409 36.5681 24.7873 36.5212 24.7295 36.48C24.3635 36.2321 23.9315 36.0998 23.4895 36.1C23.1939 36.1036 22.9018 36.1648 22.6295 36.28C22.2348 36.4466 21.8971 36.7244 21.6574 37.0795C21.4178 37.4345 21.2865 37.8516 21.2795 38.28V45.68C21.2782 45.9687 21.3351 46.2548 21.4468 46.5211C21.5584 46.7874 21.7226 47.0285 21.9295 47.23C22.1335 47.4362 22.3765 47.5999 22.6443 47.7115C22.9121 47.8231 23.1994 47.8804 23.4895 47.88C24.0739 47.88 24.6345 47.6485 25.0487 47.2362C25.4628 46.8239 25.6968 46.2644 25.6995 45.68V44.66V38.31ZM27.6995 9.17996C29.803 9.762 31.7633 10.7733 33.4568 12.1501C35.1503 13.5269 36.5404 15.2395 37.5395 17.18C38.6441 16.6109 39.838 16.2355 41.0695 16.07C39.796 13.396 37.9302 11.0472 35.6136 9.20193C33.297 7.35662 30.5905 6.06325 27.6995 5.41996V9.17996ZM19.2795 43.44V39.69C16.6542 38.9584 14.2622 37.5615 12.3351 35.6344C10.408 33.7073 9.01103 31.3153 8.27949 28.69H4.47949C5.27943 32.3056 7.0985 35.6164 9.72139 38.2304C12.3443 40.8444 15.6612 42.6523 19.2795 43.44ZM21.2795 10.54C21.2795 11.1261 21.5123 11.6882 21.9268 12.1027C22.3412 12.5171 22.9034 12.75 23.4895 12.75C24.0756 12.75 24.6377 12.5171 25.0522 12.1027C25.4667 11.6882 25.6995 11.1261 25.6995 10.54V3.13996C25.6942 2.55638 25.4594 1.99834 25.0458 1.58661C24.6322 1.17488 24.0731 0.942569 23.4895 0.939964C23.1997 0.938647 22.9126 0.99458 22.6445 1.10455C22.3764 1.21452 22.1327 1.37636 21.9274 1.58078C21.722 1.7852 21.5591 2.02817 21.4479 2.29574C21.3367 2.56331 21.2795 2.85021 21.2795 3.13996V10.53V10.54ZM37.6395 36.81C36.743 36.3618 35.912 35.7932 35.1695 35.12C33.1591 37.3158 30.5699 38.8999 27.6995 39.69V43.44C28.3995 43.28 29.0662 43.09 29.6995 42.87C31.6022 40.0266 34.3949 37.8951 37.6395 36.81ZM51.5995 27C51.5995 25.2199 51.0717 23.4799 50.0827 21.9998C49.0938 20.5198 47.6882 19.3662 46.0436 18.685C44.3991 18.0039 42.5895 17.8256 40.8437 18.1729C39.0979 18.5202 37.4942 19.3773 36.2355 20.636C34.9769 21.8947 34.1197 23.4983 33.7724 25.2442C33.4252 26.99 33.6034 28.7996 34.2846 30.4441C34.9658 32.0886 36.1193 33.4943 37.5994 34.4832C39.0794 35.4721 40.8195 36 42.5995 36C43.7814 36 44.9517 35.7672 46.0436 35.3149C47.1356 34.8626 48.1277 34.1997 48.9635 33.3639C49.7992 32.5282 50.4621 31.536 50.9144 30.4441C51.3667 29.3522 51.5995 28.1819 51.5995 27Z" fill="#FF83D5"/>
</svg>
