<svg width="62" height="62" viewBox="0 0 62 62" fill="none" xmlns="http://www.w3.org/2000/svg">
<path d="M48.6468 51.5537C49.0426 52.4271 48.8584 53.47 48.1791 54.1491C47.28 55.0482 45.8124 55.0486 44.913 54.1492L35.0591 44.2954C34.9663 44.2025 34.8561 44.1288 34.7348 44.0786C34.6135 44.0283 34.4834 44.0025 34.3521 44.0025C34.2208 44.0025 34.0908 44.0283 33.9695 44.0786C33.8482 44.1288 33.738 44.2025 33.6451 44.2954C33.5523 44.3882 33.4786 44.4984 33.4284 44.6197C33.3781 44.741 33.3522 44.871 33.3522 45.0024C33.3522 45.1337 33.3781 45.2637 33.4284 45.385C33.4786 45.5063 33.5523 45.6165 33.6451 45.7094L43.499 55.5632C44.3914 56.4557 44.3914 57.937 43.499 58.8294C42.6023 59.7261 41.1298 59.7262 40.233 58.8295L29.8208 48.4172C29.4303 48.0267 28.7973 48.0267 28.4068 48.4172C28.0163 48.8077 28.0163 49.4409 28.4068 49.8312L36.2661 57.6905C37.1585 58.5829 37.1584 60.0641 36.2661 60.9565C35.3694 61.8532 33.8966 61.8534 32.9999 60.9566L24.5825 52.5392C24.192 52.1487 23.559 52.1487 23.1685 52.5392C22.778 52.9297 22.778 53.5629 23.1685 53.9532L27.081 57.8657C27.9801 58.765 27.98 60.2326 27.081 61.1316C26.1818 62.0309 24.7139 62.0308 23.8148 61.1317L10.7643 48.0819L14.8426 27.6099H23.5111L20.4866 30.1351C19.8824 30.6395 19.4144 31.2582 19.1426 31.9574C18.8785 32.6369 18.8039 33.3766 18.9716 34.1454L21.3276 44.941C21.452 45.5169 22.0459 45.8589 22.6056 45.6826C28.8436 44.118 29.2094 39.9702 29.6064 35.4581C29.611 35.4051 29.664 34.5945 29.6971 34.5397L29.8288 34.5302C30.1078 34.5099 30.4904 34.5909 30.9606 34.7785C31.9171 35.1601 33.1235 35.9442 34.469 37.1692L48.6468 51.5537ZM43.2446 29.3184C40.62 29.0216 37.7876 27.8872 34.7139 25.3515C33.9049 24.6841 32.9636 24.3187 32.0348 24.2949C31.1588 24.2724 30.2831 24.5566 29.5343 25.1819L21.7678 31.6664C21.4129 31.9626 21.1456 32.3064 21.0019 32.6761C20.8774 32.9966 20.8431 33.3504 20.9246 33.7235L23.0509 43.4667C27.0179 42.0511 27.3048 38.801 27.614 35.2864C27.6674 34.6768 27.6665 34.0482 27.9939 33.5086C28.3499 32.9217 28.93 32.5936 29.688 32.5381C30.2531 32.4967 30.9339 32.6234 31.6949 32.927C32.8668 33.3945 34.2906 34.3075 35.8176 35.6972C40.3301 39.8044 45.115 45.1296 49.4746 49.5527L51.187 47.8405L47.4574 29.1189C46.1235 29.3852 44.7228 29.4855 43.2446 29.3184ZM61.0623 46.9764L56.7574 25.3672C56.6389 24.7726 56.0554 24.3829 55.4606 24.5014L49.921 25.605C49.3263 25.7235 48.9366 26.307 49.0551 26.9016L53.36 48.5107C53.4784 49.1054 54.0619 49.4951 54.6568 49.3765L60.1964 48.273C60.7911 48.1545 61.1808 47.571 61.0623 46.9764ZM12.0785 25.605L6.53888 24.5014C5.94413 24.3829 5.36063 24.7725 5.24213 25.3672L0.937254 46.9764C0.818754 47.571 1.20825 48.1545 1.80313 48.273L7.34275 49.3765C7.93763 49.495 8.521 49.1054 8.6395 48.5107L12.9444 26.9016C13.0629 26.307 12.6734 25.7235 12.0785 25.605ZM8.48013 20.1769H19.0328C19.5975 17.5644 20.9974 15.2677 22.9291 13.5699C21.3223 12.085 19.1779 11.1746 16.8309 11.1746C12.1066 11.1746 8.20188 14.8627 7.85388 19.502C7.84703 19.5882 7.85816 19.675 7.88656 19.7567C7.91496 19.8385 7.96002 19.9134 8.01888 19.9769C8.07774 20.0403 8.14913 20.0908 8.22852 20.1253C8.30792 20.1597 8.39359 20.1772 8.48013 20.1769ZM16.8309 9.9246C19.518 9.9246 21.6964 7.74623 21.6964 5.0591C21.6964 2.37198 19.518 0.193729 16.8309 0.193729C14.1438 0.193729 11.9654 2.3721 11.9654 5.0591C11.9655 7.74623 14.1439 9.9246 16.8309 9.9246ZM21.4981 22.7582H40.5013C40.5997 22.7587 40.6972 22.7387 40.7876 22.6995C40.8779 22.6603 40.9591 22.6028 41.0261 22.5306C41.0931 22.4585 41.1443 22.3731 41.1766 22.2801C41.2089 22.1871 41.2216 22.0884 41.2138 21.9902C40.8178 16.7117 36.375 12.5154 30.9996 12.5154C25.6243 12.5154 21.1815 16.7117 20.7855 21.9902C20.7777 22.0884 20.7904 22.1871 20.8227 22.2801C20.855 22.3731 20.9063 22.4584 20.9733 22.5306C21.0403 22.6028 21.1215 22.6603 21.2118 22.6995C21.3022 22.7387 21.3997 22.7587 21.4981 22.7582ZM42.9668 20.1769H53.5193C53.8868 20.1769 54.173 19.8685 54.1455 19.5019C53.7975 14.8626 49.8928 11.1745 45.1685 11.1745C42.8216 11.1745 40.6771 12.085 39.0703 13.5697C41.0021 15.2677 42.402 17.5644 42.9668 20.1769ZM45.1686 9.9246C47.8558 9.9246 50.034 7.74623 50.034 5.0591C50.034 2.37198 47.8558 0.193729 45.1686 0.193729C42.4815 0.193729 40.3031 2.3721 40.3031 5.0591C40.3031 7.74623 42.4815 9.9246 45.1686 9.9246ZM30.9998 11.2655C34.0571 11.2655 36.5356 8.78698 36.5356 5.7296C36.5356 2.67223 34.0571 0.193604 30.9998 0.193604C27.9424 0.193604 25.4638 2.6721 25.4638 5.72948C25.4638 8.78685 27.9424 11.2655 30.9998 11.2655Z" fill="#FF83D5"/>
</svg>
