<svg width="58" height="62" viewBox="0 0 58 62" fill="none" xmlns="http://www.w3.org/2000/svg">
<path fill-rule="evenodd" clip-rule="evenodd" d="M6.10298 47.6049H11.5746C11.9189 47.6049 12.1996 47.8856 12.1996 48.2299V57.4999H5.47798V48.2299C5.47798 47.8856 5.75873 47.6049 6.10298 47.6049ZM11.07 4.90737C16.8036 4.90737 21.4516 9.55537 21.4516 15.2889C21.4516 21.0225 16.8036 25.6705 11.07 25.6705C5.33635 25.6705 0.688477 21.0225 0.688477 15.2889C0.688352 9.55537 5.33635 4.90737 11.07 4.90737ZM15.0482 11.7485C14.4836 10.4037 13.4085 9.62675 12.2267 9.32725C12.1747 9.3141 12.1224 9.30189 12.07 9.29062V8.7195C12.07 8.45428 11.9646 8.19993 11.7771 8.01239C11.5895 7.82486 11.3352 7.7195 11.07 7.7195C10.8048 7.7195 10.5504 7.82486 10.3629 8.01239C10.1753 8.19993 10.07 8.45428 10.07 8.7195V9.30525C8.34723 9.69338 6.99973 11.0409 7.08973 12.8939C7.19398 15.0448 9.04535 15.9283 10.9194 16.2359C11.9037 16.3975 13.3756 16.7377 13.4036 17.981C13.4282 19.0164 12.0137 19.3742 11.1822 19.3939C10.1309 19.419 8.9841 18.9497 8.70823 17.8432C8.64156 17.5901 8.47806 17.3733 8.25299 17.2395C8.02792 17.1058 7.75931 17.0659 7.50509 17.1284C7.25086 17.191 7.0314 17.3509 6.89402 17.5738C6.75665 17.7966 6.71236 18.0645 6.77073 18.3197C7.17385 19.9365 8.48035 20.9729 10.07 21.2874V21.8584C10.07 22.1236 10.1753 22.3779 10.3629 22.5655C10.5504 22.753 10.8048 22.8584 11.07 22.8584C11.3352 22.8584 11.5895 22.753 11.7771 22.5655C11.9646 22.3779 12.07 22.1236 12.07 21.8584V21.3069C13.8214 21.0051 15.4422 19.8866 15.3957 17.9341C15.3387 15.5356 13.3067 14.6065 11.2396 14.2671C10.4154 14.1318 9.13173 13.8296 9.08185 12.8001C9.03898 11.9185 9.78073 11.3939 10.5646 11.2361C11.6485 11.0179 12.7594 11.4615 13.2046 12.5219C13.3072 12.7664 13.5026 12.9601 13.748 13.0604C13.9934 13.1608 14.2686 13.1596 14.5131 13.057C14.7576 12.9544 14.9513 12.759 15.0517 12.5136C15.152 12.2682 15.1508 11.993 15.0482 11.7485ZM4.2311 39.5096L27.5196 26.064L27.2325 26.5614C27.1045 26.7901 27.0719 27.0601 27.1417 27.3127C27.2115 27.5654 27.3782 27.7803 27.6054 27.9109C27.8327 28.0414 28.1022 28.0772 28.3557 28.0103C28.6091 27.9434 28.8259 27.7792 28.9591 27.5535L31.0575 23.9191C31.5204 23.2681 31.0615 22.3404 30.2419 22.3404H25.9497C25.6845 22.3404 25.4302 22.4457 25.2426 22.6333C25.0551 22.8208 24.9497 23.0752 24.9497 23.3404C24.9497 23.6056 25.0551 23.8599 25.2426 24.0475C25.4302 24.235 25.6845 24.3404 25.9497 24.3404H26.5145L3.2311 37.7831C3.00425 37.9168 2.83943 38.1347 2.77258 38.3894C2.70574 38.6441 2.74228 38.9148 2.87425 39.1427C3.00622 39.3705 3.22291 39.5369 3.47708 39.6057C3.73125 39.6744 4.00228 39.6399 4.2311 39.5096ZM49.2356 4.6415C49.3326 4.88495 49.3302 5.15677 49.2289 5.39846C49.1275 5.64014 48.9353 5.83236 48.6936 5.93375C48.4519 6.03514 48.1801 6.03759 47.9366 5.94057C47.6932 5.84355 47.4976 5.65482 47.3918 5.415C47.1835 4.91862 46.6581 4.7285 46.1551 4.82975C45.8547 4.89025 45.5081 5.07425 45.5252 5.42737C45.5441 5.8185 46.271 5.94812 46.5648 5.99638C48.053 6.24062 49.44 6.94987 49.4809 8.65263C49.5117 9.944 48.5655 10.7734 47.3987 11.0751V11.1199C47.3987 11.3851 47.2934 11.6394 47.1058 11.827C46.9183 12.0145 46.6639 12.1199 46.3987 12.1199C46.1335 12.1199 45.8792 12.0145 45.6916 11.827C45.5041 11.6394 45.3987 11.3851 45.3987 11.1199V11.0541C44.3878 10.7605 43.6031 10.0337 43.3435 8.992C43.2815 8.73549 43.3236 8.46487 43.4607 8.23938C43.5978 8.01389 43.8187 7.8519 44.0749 7.78888C44.3312 7.72586 44.602 7.76693 44.828 7.90312C45.0541 8.0393 45.2169 8.2595 45.281 8.5155C45.4089 9.02825 45.9862 9.21525 46.4604 9.20388C46.7562 9.19688 47.4975 9.06375 47.4888 8.6995C47.4888 8.18125 46.6306 8.0285 46.2446 7.96513C45.7052 7.87663 45.1157 7.71263 44.6226 7.39075C44.0135 6.99312 43.5759 6.40313 43.5331 5.52125C43.4735 4.29288 44.271 3.34038 45.3988 2.97275V2.8885C45.3988 2.62328 45.5042 2.36893 45.6917 2.18139C45.8793 1.99386 46.1336 1.8885 46.3988 1.8885C46.6641 1.8885 46.9184 1.99386 47.106 2.18139C47.2935 2.36893 47.3988 2.62328 47.3988 2.8885V2.96025C48.1718 3.20575 48.8609 3.749 49.2356 4.6415ZM46.399 0.5C42.8069 0.5 39.8949 3.412 39.8949 7.00412C39.8949 10.2562 42.2816 12.9508 45.3991 13.4318V18.9871C44.5351 17.2943 43.1813 15.9011 41.514 14.9888C39.8467 14.0766 37.9433 13.6877 36.0518 13.8729C35.9672 13.8807 35.8851 13.9058 35.8106 13.9466C35.736 13.9874 35.6706 14.043 35.6184 14.11C35.5661 14.177 35.5282 14.254 35.5068 14.3363C35.4855 14.4185 35.4812 14.5043 35.4942 14.5883C36.2241 19.4194 40.5303 22.89 45.3991 22.6075V27.4476H43.5453C43.3797 27.448 43.2209 27.5139 43.1038 27.631C42.9866 27.7482 42.9207 27.907 42.9203 28.0726V57.4999H49.6418V28.0726C49.6418 27.7284 49.3611 27.4476 49.0168 27.4476H47.399V22.6075C52.2678 22.89 56.574 19.4193 57.3039 14.5883C57.3169 14.5043 57.3126 14.4185 57.2913 14.3363C57.2699 14.254 57.232 14.177 57.1797 14.11C57.1275 14.043 57.0621 13.9873 56.9875 13.9466C56.913 13.9058 56.8308 13.8807 56.7462 13.8729C54.8547 13.6877 52.9513 14.0766 51.2841 14.9888C49.6168 15.9011 48.263 17.2943 47.399 18.9871V13.4318C50.5163 12.9506 52.9031 10.2562 52.9031 7.00412C52.9031 3.412 49.9911 0.5 46.399 0.5ZM2.1836 61.4997C1.91839 61.4997 1.66403 61.3944 1.47649 61.2069C1.28896 61.0193 1.1836 60.765 1.1836 60.4997C1.1836 60.2345 1.28896 59.9802 1.47649 59.7926C1.66403 59.6051 1.91839 59.4997 2.1836 59.4997H52.9362C53.2014 59.4997 53.4558 59.6051 53.6433 59.7926C53.8309 59.9802 53.9362 60.2345 53.9362 60.4997C53.9362 60.765 53.8309 61.0193 53.6433 61.2069C53.4558 61.3944 53.2014 61.4997 52.9362 61.4997H2.1836ZM36.5364 33.794C36.8806 33.794 37.1614 34.0747 37.1614 34.419V57.4999H30.4397V34.419C30.4397 34.0747 30.7205 33.794 31.0647 33.794H36.5364ZM24.0555 40.8487H18.5839C18.4182 40.8491 18.2594 40.915 18.1423 41.0322C18.0251 41.1493 17.9592 41.3081 17.9589 41.4737V57.4999H24.6805V41.4737C24.6805 41.1295 24.3997 40.8487 24.0555 40.8487Z" fill="#FF83D5"/>
</svg>
