<svg width="64" height="64" viewBox="0 0 64 64" fill="none" xmlns="http://www.w3.org/2000/svg">
<path d="M16.4798 38.2933L17.4717 35.8186C18.493 35.5672 19.4709 35.1645 20.3731 34.624L22.8158 35.6693C23.6425 35.0453 24.3784 34.3093 25.0024 33.4826L23.9571 31.04V31.0293C24.4979 30.131 24.9006 29.1566 25.1518 28.1386L27.6264 27.1466C27.7651 26.1202 27.7651 25.0798 27.6264 24.0533L25.1518 23.0613C24.9003 22.0401 24.4977 21.0621 23.9571 20.16L25.0024 17.7173C24.3784 16.8906 23.6425 16.1547 22.8158 15.5306L20.3731 16.576H20.3624C19.4641 16.0352 18.4897 15.6325 17.4717 15.3813L16.4798 12.9066C15.4533 12.768 14.4129 12.768 13.3864 12.9066L12.3944 15.3813C11.3732 15.6327 10.3953 16.0354 9.49308 16.576L7.05042 15.5306C6.22372 16.1547 5.48778 16.8906 4.86375 17.7173L5.90908 20.16V20.1706C5.3683 21.0689 4.96558 22.0433 4.71442 23.0613L2.23975 24.0533C2.10107 25.0798 2.10107 26.1202 2.23975 27.1466L4.71442 28.1386C4.96583 29.1599 5.3685 30.1378 5.90908 31.04L4.86375 33.4826C5.48778 34.3093 6.22372 35.0453 7.05042 35.6693L9.49308 34.624H9.50375C10.402 35.1647 11.3765 35.5675 12.3944 35.8186L13.3864 38.2933C14.4129 38.432 15.4533 38.432 16.4798 38.2933ZM8.53308 25.6C8.53308 24.3342 8.90844 23.0968 9.61168 22.0443C10.3149 20.9918 11.3145 20.1715 12.4839 19.6871C13.6534 19.2027 14.9402 19.076 16.1817 19.3229C17.4231 19.5699 18.5635 20.1794 19.4586 21.0745C20.3536 21.9695 20.9632 23.1099 21.2101 24.3514C21.4571 25.5929 21.3303 26.8797 20.8459 28.0491C20.3615 29.2186 19.5412 30.2181 18.4887 30.9214C17.4363 31.6246 16.1989 32 14.9331 32C13.2357 32 11.6078 31.3257 10.4076 30.1255C9.20737 28.9252 8.53308 27.2974 8.53308 25.6ZM59.2851 37.9946C59.0337 36.9734 58.631 35.9955 58.0904 35.0933L59.1358 32.6506C58.5117 31.8239 57.7758 31.088 56.9491 30.464L54.5064 31.5093H54.4958C53.5975 30.9685 52.6231 30.5658 51.6051 30.3146L50.6131 27.84C49.5866 27.7013 48.5462 27.7013 47.5198 27.84L46.5278 30.3146C45.5065 30.566 44.5286 30.9687 43.6264 31.5093L41.1838 30.464C40.3571 31.088 39.6211 31.8239 38.9971 32.6506L40.0424 35.0933V35.104C39.5016 36.0022 39.0989 36.9767 38.8478 37.9946L36.3731 38.9866C36.2344 40.0131 36.2344 41.0535 36.3731 42.08L38.8478 43.072C39.0992 44.0932 39.5018 45.0711 40.0424 45.9733L38.9971 48.416C39.6211 49.2427 40.3571 49.9786 41.1838 50.6026L43.6264 49.5573H43.6371C44.5354 50.0981 45.5098 50.5008 46.5278 50.752L47.5198 53.2266C48.5462 53.3653 49.5866 53.3653 50.6131 53.2266L51.6051 50.752C52.6263 50.5006 53.6042 50.0979 54.5064 49.5573L56.9491 50.6026C57.7758 49.9786 58.5117 49.2427 59.1358 48.416L58.0904 45.9733V45.9626C58.6312 45.0644 59.0339 44.0899 59.2851 43.072L61.7598 42.08C61.8984 41.0535 61.8984 40.0131 61.7598 38.9866L59.2851 37.9946ZM49.0664 46.9333C47.8006 46.9333 46.5632 46.558 45.5108 45.8547C44.4583 45.1515 43.638 44.1519 43.1536 42.9825C42.6692 41.813 42.5424 40.5262 42.7894 39.2847C43.0363 38.0432 43.6459 36.9029 44.5409 36.0078C45.436 35.1128 46.5764 34.5032 47.8178 34.2563C49.0593 34.0093 50.3461 34.1361 51.5156 34.6205C52.685 35.1049 53.6846 35.9252 54.3878 36.9777C55.0911 38.0301 55.4664 39.2675 55.4664 40.5333C55.4664 42.2307 54.7921 43.8586 53.5919 45.0588C52.3917 46.259 50.7638 46.9333 49.0664 46.9333ZM23.4664 5.3333C23.4664 5.6162 23.5788 5.88751 23.7788 6.08755C23.9789 6.28759 24.2502 6.39997 24.5331 6.39997H39.4664C39.7493 6.39997 40.0206 6.28759 40.2207 6.08755C40.4207 5.88751 40.5331 5.6162 40.5331 5.3333V2.1333H23.4664V5.3333Z" fill="#FF83D5"/>
<path d="M45.9833 55.1253L44.9273 52.5013C44.4475 52.336 43.9774 52.1437 43.5193 51.9253L40.9486 53.024C40.0935 52.4543 39.2891 51.8119 38.5444 51.104C37.8097 50.3561 37.1502 49.5379 36.5753 48.6613L37.674 46.08C37.4547 45.6223 37.2624 45.1521 37.0979 44.672L34.4846 43.6266C34.1056 41.5857 34.102 39.4928 34.474 37.4506L37.0979 36.3946C37.2632 35.9148 37.4555 35.4447 37.674 34.9866L36.5753 32.416C37.7404 30.6959 39.2207 29.2119 40.938 28.0426L43.5193 29.1413C43.977 28.9221 44.4471 28.7297 44.9273 28.5653L45.9726 25.952L47.1353 25.7386C47.7742 25.6414 48.4197 25.595 49.066 25.6V4.26663C49.0643 3.70136 48.839 3.15972 48.4392 2.76C48.0395 2.36029 47.4979 2.13499 46.9326 2.1333H42.666V5.3333C42.6634 6.18121 42.3255 6.99368 41.7259 7.59325C41.1263 8.19281 40.3139 8.53077 39.466 8.5333H24.5326C23.6847 8.53077 22.8722 8.19281 22.2727 7.59325C21.6731 6.99368 21.3351 6.18121 21.3326 5.3333V2.1333H17.066C16.5007 2.13499 15.959 2.36029 15.5593 2.76C15.1596 3.15972 14.9343 3.70136 14.9326 4.26663V10.6666C15.5752 10.6631 16.2172 10.7095 16.8526 10.8053L18.0153 11.008L19.0713 13.632C19.5511 13.7972 20.0212 13.9895 20.4793 14.208L23.05 13.1093C24.7703 14.2741 26.2543 15.7545 27.4233 17.472L26.3246 20.0533C26.5439 20.511 26.7362 20.9812 26.9006 21.4613L29.514 22.5066C29.8929 24.5475 29.8966 26.6404 29.5246 28.6826L26.9006 29.7386C26.7354 30.2185 26.543 30.6886 26.3246 31.1466L27.4233 33.7173C26.2585 35.4376 24.7781 36.9216 23.0606 38.0906L20.4793 36.992C20.0216 37.2112 19.5514 37.4035 19.0713 37.568L18.026 40.1813L16.8633 40.3946C16.2244 40.4919 15.5788 40.5383 14.9326 40.5333V59.7333C14.9343 60.2986 15.1596 60.8402 15.5593 61.2399C15.959 61.6396 16.5007 61.8649 17.066 61.8666H46.9326C47.4979 61.8649 48.0395 61.6396 48.4392 61.2399C48.839 60.8402 49.0643 60.2986 49.066 59.7333V55.4666C48.4233 55.4705 47.7814 55.4242 47.146 55.328L45.9833 55.1253ZM44.7993 5.3333C44.7993 5.0504 44.9117 4.77909 45.1117 4.57905C45.3117 4.37901 45.5831 4.26663 45.866 4.26663C46.1488 4.26663 46.4202 4.37901 46.6202 4.57905C46.8202 4.77909 46.9326 5.0504 46.9326 5.3333V6.39997C46.9326 6.68287 46.8202 6.95418 46.6202 7.15421C46.4202 7.35425 46.1488 7.46663 45.866 7.46663C45.5831 7.46663 45.3117 7.35425 45.1117 7.15421C44.9117 6.95418 44.7993 6.68287 44.7993 6.39997V5.3333ZM19.1993 6.39997C19.1993 6.68287 19.0869 6.95418 18.8869 7.15421C18.6868 7.35425 18.4155 7.46663 18.1326 7.46663C17.8497 7.46663 17.5784 7.35425 17.3784 7.15421C17.1783 6.95418 17.066 6.68287 17.066 6.39997V5.3333C17.066 5.0504 17.1783 4.77909 17.3784 4.57905C17.5784 4.37901 17.8497 4.26663 18.1326 4.26663C18.4155 4.26663 18.6868 4.37901 18.8869 4.57905C19.0869 4.77909 19.1993 5.0504 19.1993 5.3333V6.39997ZM39.466 59.7333H24.5326C24.2497 59.7333 23.9784 59.6209 23.7784 59.4209C23.5783 59.2208 23.466 58.9495 23.466 58.6666C23.466 58.3837 23.5783 58.1124 23.7784 57.9124C23.9784 57.7123 24.2497 57.6 24.5326 57.6H39.466C39.7488 57.6 40.0202 57.7123 40.2202 57.9124C40.4202 58.1124 40.5326 58.3837 40.5326 58.6666C40.5326 58.9495 40.4202 59.2208 40.2202 59.4209C40.0202 59.6209 39.7488 59.7333 39.466 59.7333Z" fill="#FF83D5"/>
<path d="M14.9326 21.333V29.8663C16.0642 29.8663 17.1495 29.4168 17.9496 28.6167C18.7498 27.8165 19.1993 26.7313 19.1993 25.5997C19.1993 24.4681 18.7498 23.3828 17.9496 22.5827C17.1495 21.7825 16.0642 21.333 14.9326 21.333ZM44.7993 40.533C44.7993 41.6646 45.2488 42.7498 46.049 43.55C46.8491 44.3502 47.9344 44.7997 49.066 44.7997V36.2663C47.9344 36.2663 46.8491 36.7159 46.049 37.516C45.2488 38.3162 44.7993 39.4014 44.7993 40.533Z" fill="#FF83D5"/>
</svg>
