<svg width="46" height="54" viewBox="0 0 46 54" fill="none" xmlns="http://www.w3.org/2000/svg">
<path d="M40.4401 5.98658L25.7735 0.493242C24.2535 -0.0667578 21.7735 -0.0667578 20.2535 0.493242L5.5868 5.98658C2.76013 7.05324 0.466797 10.3599 0.466797 13.3732V34.9732C0.466797 37.1332 1.88013 39.9866 3.61346 41.2666L18.2801 52.2266C20.8668 54.1732 25.1068 54.1732 27.6935 52.2266L42.3601 41.2666C44.0935 39.9599 45.5068 37.1332 45.5068 34.9732V13.3732C45.5335 10.3599 43.2401 7.05324 40.4401 5.98658ZM32.2801 20.9199L20.8135 32.3866C20.4135 32.7866 19.9068 32.9732 19.4001 32.9732C18.8935 32.9732 18.3868 32.7866 17.9868 32.3866L13.7201 28.0666C12.9468 27.2932 12.9468 26.0132 13.7201 25.2399C14.4935 24.4666 15.7735 24.4666 16.5468 25.2399L19.4268 28.1199L29.4801 18.0666C30.2535 17.2932 31.5335 17.2932 32.3068 18.0666C33.0801 18.8399 33.0801 20.1466 32.2801 20.9199Z" fill="#FF83D5"/>
</svg>
